<?xml version="1.0" encoding="UTF-8" standalone="no"?>
<!DOCTYPE svg PUBLIC "-//W3C//DTD SVG 1.1//EN" "http://www.w3.org/Graphics/SVG/1.1/DTD/svg11.dtd">
<svg width="100%" height="100%" viewBox="0 0 23 19" version="1.1" xmlns="http://www.w3.org/2000/svg" xmlns:xlink="http://www.w3.org/1999/xlink" xml:space="preserve" xmlns:serif="http://www.serif.com/" style="fill-rule:evenodd;clip-rule:evenodd;stroke-linejoin:round;stroke-miterlimit:2;">
    <g transform="matrix(1,0,0,1,-1290,-1685)">
        <g transform="matrix(1,0,0,1,0,-48.1521)">
            <g id="folder-foundation-open">
                <g transform="matrix(1,0,0,1,1288.57,1729.9)">
                    <path d="M19,20L4,20C2.903,20 2,19.097 2,18L2,6C2,4.89 2.89,4 4,4L10,4L12,6L19,6C20.097,6 21,6.903 21,8L4,8L4,18L6.14,10L23.21,10L20.93,18.5C20.7,19.37 19.92,20 19,20Z" style="fill:rgb(251,191,44);fill-rule:nonzero;"/>
                </g>
                <g transform="matrix(0.0251961,0,0,0.0251961,1299.83,1738.89)">
                    <path d="M240.8,4.8C250.3,10.6 256,20.9 256,32L256,104L345,104C348.6,90.2 361.1,80 376,80L464,80C490.5,80 512,101.5 512,128C512,154.5 490.5,176 464,176L376,176C361.1,176 348.6,165.8 345,152L256,152L256,224C256,235.1 250.3,245.4 240.8,251.2C231.3,257 219.6,257.6 209.7,252.6L17.7,156.6C6.8,151.2 0,140.1 0,128C0,115.9 6.8,104.8 17.7,99.4L209.7,3.4C219.6,-1.6 231.4,-1 240.8,4.8ZM288,256C288,238.3 302.3,224 320,224L480,224C497.7,224 512,238.3 512,256L512,320C512,337.7 497.7,352 480,352L320,352C302.3,352 288,337.7 288,320L288,256ZM32,384L128,384C145.7,384 160,398.3 160,416L160,480C160,497.7 145.7,512 128,512L32,512C14.3,512 0,497.7 0,480L0,416C0,398.3 14.3,384 32,384ZM224,384L480,384C497.7,384 512,398.3 512,416L512,480C512,497.7 497.7,512 480,512L224,512C206.3,512 192,497.7 192,480L192,416C192,398.3 206.3,384 224,384Z" style="fill:rgb(255,249,196);fill-rule:nonzero;"/>
                </g>
            </g>
        </g>
    </g>
</svg>
