<?xml version="1.0" encoding="UTF-8" standalone="no"?>
<!DOCTYPE svg PUBLIC "-//W3C//DTD SVG 1.1//EN" "http://www.w3.org/Graphics/SVG/1.1/DTD/svg11.dtd">
<svg width="100%" height="100%" viewBox="0 0 99 72" version="1.1" xmlns="http://www.w3.org/2000/svg" xmlns:xlink="http://www.w3.org/1999/xlink" xml:space="preserve" xmlns:serif="http://www.serif.com/" style="fill-rule:evenodd;clip-rule:evenodd;stroke-linejoin:round;stroke-miterlimit:2;">
    <g transform="matrix(1,0,0,1,-1217.84,-841.075)">
        <g transform="matrix(4.16667,0,0,4.16667,-4266.4,-6085.56)">
            <g transform="matrix(1,0,0,1,1314.22,1658.39)">
                <path d="M19,20L4,20C2.903,20 2,19.097 2,18L2,6C2,4.89 2.89,4 4,4L10,4L12,6L19,6C20.097,6 21,6.903 21,8L4,8L4,18L6.14,10L23.21,10L20.93,18.5C20.7,19.37 19.92,20 19,20Z" style="fill:rgb(96,125,139);fill-rule:nonzero;"/>
            </g>
            <g transform="matrix(0.00196819,0,0,0.00308054,1324.81,1671.46)">
                <g transform="matrix(3.06821,0,0,1.9603,-0.593559,-1550.39)">
                    <path d="M2401.82,1649.5C2268.43,1719.03 1577.43,2003.14 1430.33,2079.83C1283.22,2156.53 1201.49,2155.79 1085.28,2100.24C969.071,2044.68 233.732,1747.65 101.269,1684.34C35.072,1652.7 0.255,1625.99 0.255,1600.76L0.255,1348.11C0.255,1348.11 957.579,1139.71 1112.13,1084.26C1266.67,1028.81 1320.29,1026.81 1451.81,1074.99C1583.34,1123.18 2369.76,1265.07 2499.74,1312.67L2499.69,1561.74C2499.71,1586.72 2469.71,1614.12 2401.82,1649.5" style="fill:rgb(145,38,38);fill-rule:nonzero;"/>
                </g>
                <g transform="matrix(3.06821,0,0,1.9603,-0.593559,-1550.39)">
                    <path d="M2401.77,1398.35C2268.39,1467.85 1577.41,1751.97 1430.31,1828.65C1283.21,1905.36 1201.48,1904.61 1085.28,1849.06C969.061,1793.54 233.752,1496.46 101.298,1433.18C-31.155,1369.87 -33.928,1326.29 96.182,1275.35C226.292,1224.38 957.569,937.475 1112.14,882.027C1266.68,826.599 1320.29,824.578 1451.81,872.771C1583.33,920.945 2270.18,1194.34 2400.15,1241.93C2530.16,1289.59 2535.15,1328.83 2401.77,1398.35" style="fill:rgb(198,48,43);fill-rule:nonzero;"/>
                </g>
                <g transform="matrix(3.06821,0,0,1.9603,-0.593559,-1550.39)">
                    <path d="M2401.82,1240.7C2268.43,1310.24 1577.43,1594.34 1430.33,1671.07C1283.22,1747.74 1201.49,1747 1085.28,1691.44C969.061,1635.92 233.732,1338.86 101.269,1275.54C35.072,1243.91 0.255,1217.23 0.255,1191.99L0.255,939.32C0.255,939.32 957.579,730.925 1112.13,675.478C1266.67,620.03 1320.29,618.019 1451.81,666.202C1583.35,714.386 2369.77,856.242 2499.74,903.859L2499.69,1152.96C2499.71,1177.92 2469.71,1205.32 2401.82,1240.7" style="fill:rgb(145,38,38);fill-rule:nonzero;"/>
                </g>
                <g transform="matrix(3.06821,0,0,1.9603,-0.593559,-1550.39)">
                    <path d="M2401.77,989.554C2268.39,1059.07 1577.41,1343.17 1430.31,1419.89C1283.21,1496.57 1201.48,1495.82 1085.28,1440.26C969.061,1384.75 233.752,1087.68 101.298,1024.39C-31.155,961.093 -33.928,917.508 96.182,866.542C226.292,815.605 957.579,528.681 1112.14,473.243C1266.68,417.806 1320.29,415.794 1451.81,463.978C1583.33,512.152 2270.18,785.524 2400.15,833.141C2530.16,880.787 2535.15,920.037 2401.77,989.554" style="fill:rgb(198,48,43);fill-rule:nonzero;"/>
                </g>
                <g transform="matrix(3.06821,0,0,1.9603,-0.593559,-1550.39)">
                    <path d="M2401.82,816.757C2268.43,886.275 1577.43,1170.4 1430.33,1247.12C1283.22,1323.8 1201.49,1323.05 1085.28,1267.5C969.061,1211.97 233.732,914.902 101.269,851.614C35.072,819.95 0.255,793.266 0.255,768.056L0.255,515.374C0.255,515.374 957.579,306.988 1112.13,251.55C1266.67,196.093 1320.29,194.101 1451.81,242.275C1583.35,290.458 2369.77,432.314 2499.74,479.932L2499.69,729.021C2499.71,753.968 2469.71,781.364 2401.82,816.757" style="fill:rgb(145,38,38);fill-rule:nonzero;"/>
                </g>
                <g transform="matrix(3.06821,0,0,1.9603,-0.593559,-1550.39)">
                    <path d="M2401.77,565.607C2268.39,635.125 1577.41,919.246 1430.31,995.93C1283.21,1072.61 1201.48,1071.86 1085.28,1016.34C969.071,960.781 233.752,663.732 101.308,600.434C-31.155,537.146 -33.918,493.552 96.182,442.595C226.292,391.649 957.579,104.764 1112.14,49.306C1266.68,-6.141 1320.29,-8.133 1451.81,40.05C1583.33,88.234 2270.18,361.606 2400.15,409.223C2530.16,456.831 2535.15,496.09 2401.77,565.607" style="fill:rgb(198,48,43);fill-rule:nonzero;"/>
                </g>
                <g transform="matrix(3.06821,0,0,1.9603,-0.593559,-1550.39)">
                    <path d="M1555.44,319.827L1340.54,342.137L1292.43,457.895L1214.73,328.722L966.591,306.422L1151.75,239.648L1096.19,137.15L1269.55,204.948L1432.97,151.444L1388.8,257.428L1555.44,319.827M1279.6,881.412L878.542,715.069L1453.23,626.855L1279.6,881.412M723.564,384.17C893.207,384.17 1030.73,437.479 1030.73,503.228C1030.73,568.995 893.207,622.295 723.564,622.295C553.921,622.295 416.4,568.986 416.4,503.228C416.4,437.479 553.921,384.17 723.564,384.17" style="fill:white;fill-rule:nonzero;"/>
                </g>
                <g transform="matrix(3.06821,0,0,1.9603,-0.593559,-1550.39)">
                    <path d="M1809.41,351.471L2149.53,485.878L1809.7,620.157L1809.41,351.462" style="fill:rgb(98,27,28);fill-rule:nonzero;"/>
                </g>
                <g transform="matrix(3.06821,0,0,1.9603,-0.593559,-1550.39)">
                    <path d="M1433.12,500.318L1809.41,351.471L1809.7,620.157L1772.8,634.588L1433.12,500.318" style="fill:rgb(154,41,40);fill-rule:nonzero;"/>
                </g>
            </g>
        </g>
    </g>
</svg>
