<?xml version="1.0" encoding="UTF-8" standalone="no"?>
<!DOCTYPE svg PUBLIC "-//W3C//DTD SVG 1.1//EN" "http://www.w3.org/Graphics/SVG/1.1/DTD/svg11.dtd">
<svg width="100%" height="100%" viewBox="0 0 25 18" version="1.1" xmlns="http://www.w3.org/2000/svg" xmlns:xlink="http://www.w3.org/1999/xlink" xml:space="preserve" xmlns:serif="http://www.serif.com/" style="fill-rule:evenodd;clip-rule:evenodd;stroke-linejoin:round;stroke-miterlimit:2;">
    <g transform="matrix(1,0,0,1,-1264,-1641)">
        <g id="folder-gcp">
            <g transform="matrix(1,0,0,1,1262.27,1637.33)">
                <path d="M10,4L4,4C2.89,4 2,4.89 2,6L2,18C2,19.097 2.903,20 4,20L20,20C21.097,20 22,19.097 22,18L22,8C22,6.903 21.097,6 20,6L12,6L10,4Z" style="fill:rgb(94,98,104);fill-rule:nonzero;"/>
            </g>
            <g transform="matrix(0.062683,0,0,0.062683,1272.38,1645.65)">
                <path d="M170.252,56.819L192.505,34.566L193.988,25.196C153.437,-11.677 88.976,-7.496 52.421,33.92C42.267,45.423 34.734,59.764 30.717,74.573L38.687,73.45L83.192,66.111L86.628,62.597C106.425,40.855 139.898,37.93 162.756,56.429L170.252,56.819Z" style="fill:rgb(234,67,53);fill-rule:nonzero;"/>
                <path d="M224.205,73.918C219.09,55.082 208.589,38.149 193.988,25.196L162.756,56.428C175.944,67.204 183.457,83.438 183.135,100.465L183.135,106.009C198.486,106.009 210.932,118.454 210.932,133.805C210.932,149.157 198.486,161.29 183.135,161.29L127.464,161.29L121.998,167.224L121.998,200.564L127.464,205.795L183.135,205.795C223.065,206.106 255.687,174.301 255.998,134.371C256.186,110.168 244.253,87.478 224.205,73.918" style="fill:rgb(66,133,244);fill-rule:nonzero;"/>
                <path d="M71.87,205.796L127.463,205.796L127.463,161.29L71.87,161.29C67.909,161.289 64.073,160.438 60.471,158.792L52.584,161.212L30.175,183.465L28.223,191.039C40.79,200.528 56.123,205.864 71.87,205.796" style="fill:rgb(52,168,83);fill-rule:nonzero;"/>
                <path d="M71.87,61.426C31.939,61.664 -0.237,94.228 0.001,134.158C0.134,156.456 10.548,177.446 28.223,191.039L60.471,158.792C46.48,152.47 40.263,136.006 46.584,122.016C52.904,108.025 69.37,101.809 83.359,108.129C89.524,110.914 94.461,115.852 97.246,122.016L129.494,89.769C115.773,71.832 94.453,61.344 71.87,61.426" style="fill:rgb(251,188,5);fill-rule:nonzero;"/>
            </g>
        </g>
    </g>
</svg>
