<?xml version="1.0" encoding="UTF-8" standalone="no"?>
<!DOCTYPE svg PUBLIC "-//W3C//DTD SVG 1.1//EN" "http://www.w3.org/Graphics/SVG/1.1/DTD/svg11.dtd">
<svg width="100%" height="100%" viewBox="0 0 23 19" version="1.1" xmlns="http://www.w3.org/2000/svg" xmlns:xlink="http://www.w3.org/1999/xlink" xml:space="preserve" xmlns:serif="http://www.serif.com/" style="fill-rule:evenodd;clip-rule:evenodd;stroke-linejoin:round;stroke-miterlimit:2;">
    <g transform="matrix(1,0,0,1,-1290,-1711)">
        <g id="folder-zarf-open">
            <g transform="matrix(1,0,0,1,1288.57,1707.89)">
                <path d="M19,20L4,20C2.903,20 2,19.097 2,18L2,6C2,4.89 2.89,4 4,4L10,4L12,6L19,6C20.097,6 21,6.903 21,8L4,8L4,18L6.14,10L23.21,10L20.93,18.5C20.7,19.37 19.92,20 19,20Z" style="fill:rgb(24,118,209);fill-rule:nonzero;"/>
            </g>
            <g transform="matrix(0.0251934,0,0,0.0251934,1299.83,1716.88)">
                <path d="M156.6,384.9L125.7,354C117.2,345.5 114.2,333.2 118,321.8C121,312.9 125,301.3 129.8,288L24,288C15.4,288 7.4,283.4 3.1,275.9C-1.2,268.4 -1.1,259.2 3.3,251.8L55.8,163.3C68.8,141.4 92.3,128 117.7,128L200,128C202.4,124 204.8,120.3 207.2,116.7C289.1,-4.1 411.1,-8.1 483.9,5.3C495.5,7.4 504.5,16.5 506.7,28.1C520.1,101 516,222.9 395.3,304.8C391.8,307.2 388,309.6 384,312L384,394.3C384,419.7 370.6,443.3 348.7,456.2L260.2,508.7C252.8,513.1 243.6,513.2 236.1,508.9C228.6,504.6 224,496.7 224,488L224,380.8C209.9,385.7 197.6,389.7 188.3,392.7C177.1,396.3 164.9,393.2 156.5,384.9L156.6,384.9ZM384,168C405.943,168 424,149.943 424,128C424,106.057 405.943,88 384,88C362.057,88 344,106.057 344,128C344,149.943 362.057,168 384,168Z" style="fill:rgb(187,222,251);fill-rule:nonzero;"/>
            </g>
        </g>
    </g>
</svg>
