<?xml version="1.0" encoding="UTF-8" standalone="no"?>
<!DOCTYPE svg PUBLIC "-//W3C//DTD SVG 1.1//EN" "http://www.w3.org/Graphics/SVG/1.1/DTD/svg11.dtd">
<svg width="100%" height="100%" viewBox="0 0 95 72" version="1.1" xmlns="http://www.w3.org/2000/svg" xmlns:xlink="http://www.w3.org/1999/xlink" xml:space="preserve" xmlns:serif="http://www.serif.com/" style="fill-rule:evenodd;clip-rule:evenodd;stroke-linejoin:round;stroke-miterlimit:2;">
    <g transform="matrix(1,0,0,1,-1057.76,-766.205)">
        <g transform="matrix(4.16667,0,0,4.16667,1049.43,749.538)">
            <path d="M10,4L4,4C2.89,4 2,4.89 2,6L2,18C2,19.097 2.903,20 4,20L20,20C21.097,20 22,19.097 22,18L22,8C22,6.903 21.097,6 20,6L12,6L10,4Z" style="fill:rgb(96,125,139);fill-rule:nonzero;"/>
        </g>
        <g transform="matrix(1.79166,0,0,1.79166,-1611.29,-2694.59)">
            <g transform="matrix(1,0,0,1,1512.22,1941.66)">
                <path d="M30,27.422L30,28.828C29.353,28.828 28.828,29.353 28.828,30L27.422,30C27.422,29.353 26.897,28.828 26.25,28.828C25.603,28.828 25.078,29.353 25.078,30L23.672,30C23.672,29.353 23.147,28.828 22.5,28.828C21.853,28.828 21.328,29.353 21.328,30L19.922,30C19.922,29.353 19.397,28.828 18.75,28.828C18.103,28.828 17.578,29.353 17.578,30L16.172,30C16.172,29.353 15.647,28.828 15,28.828C14.353,28.828 13.828,29.353 13.828,30L12.422,30C12.422,29.353 11.897,28.828 11.25,28.828C10.603,28.828 10.078,29.353 10.078,30L8.672,30C8.672,29.353 8.147,28.828 7.5,28.828C6.853,28.828 6.328,29.353 6.328,30L4.922,30C4.922,29.581 4.699,29.195 4.336,28.985C3.973,28.776 3.527,28.776 3.164,28.985C2.801,29.195 2.578,29.581 2.578,30L1.172,30C1.172,29.353 0.647,28.828 0,28.828L0,27.422C0.647,27.422 1.172,26.897 1.172,26.25C1.172,25.603 0.647,25.078 0,25.078L0,23.672C0.647,23.672 1.172,23.147 1.172,22.5C1.172,21.853 0.647,21.328 0,21.328L0,19.922C0.647,19.922 1.172,19.397 1.172,18.75C1.172,18.103 0.647,17.578 0,17.578L0,16.172C0.647,16.172 1.172,15.647 1.172,15C1.172,14.353 0.647,13.828 0,13.828L0,12.422C0.647,12.422 1.172,11.897 1.172,11.25C1.172,10.603 0.647,10.078 0,10.078L0,8.672C0.647,8.672 1.172,8.147 1.172,7.5C1.172,6.853 0.647,6.328 0,6.328L0,4.922C0.647,4.922 1.172,4.397 1.172,3.75C1.172,3.103 0.647,2.578 0,2.578L0,1.172C0.647,1.172 1.172,0.647 1.172,0L2.578,0C2.578,0.647 3.103,1.172 3.75,1.172C4.397,1.172 4.922,0.647 4.922,0L6.328,0C6.328,0.647 6.853,1.172 7.5,1.172C8.147,1.172 8.672,0.647 8.672,0L10.078,0C10.078,0.647 10.603,1.172 11.25,1.172C11.897,1.172 12.422,0.647 12.422,0L13.828,0C13.828,0.647 14.353,1.172 15,1.172C15.647,1.172 16.172,0.647 16.172,0L17.578,0C17.578,0.647 18.103,1.172 18.75,1.172C19.397,1.172 19.922,0.647 19.922,0L21.328,0C21.328,0.647 21.853,1.172 22.5,1.172C23.147,1.172 23.672,0.647 23.672,0L25.078,0C25.078,0.647 25.603,1.172 26.25,1.172C26.897,1.172 27.422,0.647 27.422,0L28.828,0C28.828,0.647 29.353,1.172 30,1.172L30,2.578C29.353,2.578 28.828,3.103 28.828,3.75C28.828,4.397 29.353,4.922 30,4.922L30,6.328C29.353,6.328 28.828,6.853 28.828,7.5C28.828,8.147 29.353,8.672 30,8.672L30,10.078C29.353,10.078 28.828,10.603 28.828,11.25C28.828,11.897 29.353,12.422 30,12.422L30,13.828C29.581,13.828 29.195,14.052 28.985,14.414C28.776,14.777 28.776,15.223 28.985,15.586C29.195,15.948 29.581,16.172 30,16.172L30,17.578C29.353,17.578 28.828,18.103 28.828,18.75C28.828,19.397 29.353,19.922 30,19.922L30,21.328C29.353,21.328 28.828,21.853 28.828,22.5C28.828,23.147 29.353,23.672 30,23.672L30,25.078C29.353,25.078 28.828,25.603 28.828,26.25C28.828,26.897 29.353,27.422 30,27.422Z" style="fill:rgb(255,222,0);"/>
            </g>
            <g transform="matrix(1,0,0,1,1512.22,1941.66)">
                <path d="M8.703,21.38L9.638,21.38C10.119,21.38 10.422,21.071 10.422,20.58L10.422,9.629C10.422,9.138 10.119,8.828 9.638,8.828L8.703,8.828L8.703,6.4L15.478,6.4C19.118,6.4 22,8.286 22,11.876C22,15.492 19.118,17.377 15.478,17.377L13.152,17.377L13.152,20.58C13.152,21.071 13.456,21.38 13.961,21.38L15.857,21.38L15.857,23.834L8.703,23.834L8.703,21.38ZM15.276,14.846C17.677,14.846 19.068,13.813 19.068,11.928C19.068,9.99 17.677,9.009 15.276,9.009L13.152,9.009L13.152,14.872L15.276,14.872L15.276,14.846Z" style="fill-rule:nonzero;"/>
            </g>
        </g>
    </g>
</svg>
